<svg id="a1148cdb-dfcc-4126-a7bc-a1268759a233" data-name="Layer 1" xmlns="http://www.w3.org/2000/svg" viewBox="0 0 436.59 349.28"><path d="M328.27,22.86c4.31-1,8.71-1.75,13.15-1.18-2.08,3.35-5.43,5.51-8.7,7.55C331.25,27.1,329.76,25,328.27,22.86Z" style="fill:#776975"/><path d="M150.22,21.36c17.38-7.65,36.22-11.16,55-13.23,15.5-.44,31.12-.36,46.37,2.78,6.73,1.78,13.72,2.49,20.26,5A233.91,233.91,0,0,1,299.55,27c.2.91.42,1.81.64,2.72C284.51,36.45,270.35,46.08,255.88,55c-11.07,6.86-22.09,13.81-33,21a71.75,71.75,0,0,1-9.67,5.35c-2.08-1.86-4-4.32-6.95-4.76a23,23,0,0,0-8.35.53c-6,1.8-12.07,3.45-17.77,6.1-5.65,2.46-10.66,6.1-16.11,8.94-3.73,2.11-7.87,4-10.4,7.64-2.05,3.23-.93,7.23-.51,10.76-3.32,3-7.19,5.44-10.11,8.86-.44,3,2.1,5.3,3.47,7.69,3,3.9,5.37,8.64,9.78,11.13,3.89,2,8.06-.35,11.88-1.32,2.94,6.21,5.63,12.58,6.88,19.38a258.82,258.82,0,0,0-30.6,6.11c-6.64,1.73-13.73,1.21-20.18,3.73-10.62,3.77-18.92,11.7-27.28,18.93a15,15,0,0,0-5,14.14c1.09,6.42,3.16,12.63,4.13,19.07,1.68,10.62,3.19,21.28,5.5,31.79,1.43,7.54,3.31,15,5.47,22.36-3.28,2-7.2,1.34-10.85,1.38q-16.48-.13-33,0c-2.23,0-5,.07-6.2-2.24-4.47-7.18-7-15.35-9.9-23.23-5.24-13.83-7.89-28.47-9.47-43.13-.42-10.6-.37-21.23,0-31.84,1.34-12.85,3.53-25.68,7.76-37.93,7.42-25.6,21.3-49.09,39.12-68.83C97.06,54,110.51,41.9,126.2,33.24,133.42,27.84,141.93,24.71,150.22,21.36Zm24.08-2.94,62,7.09-.82,1C236.5,29.64,239.78,25.07,236.33,25.51ZM66.51,148.26m23.21,7.19c-.41,1.38.09,1.87,1.51,1.45C91.64,155.52,91.14,155,89.72,155.45Zm-39.08,4,48.91,6.06M72.64,195.52c-1,1.27,1.36,2.26,2.12,1.19C75.7,195.43,73.39,194.44,72.64,195.52Zm7.77,2" style="fill:#fefcd4"/><path d="M282.08,76.88c15.59-4.53,31.66-9.16,48.05-8.13,9.25.26,17.61,6.3,27,4.73a21.67,21.67,0,0,1,4,4.07c4.51,6.15,9.26,12.15,13,18.83,7.77,13.68,14.56,28,18.59,43.29,3.21,8.75,3,18.2,5.17,27.19,1.26,5.42.47,11,1.33,16.51,1.12,7.32-.49,14.63-.54,22a46.44,46.44,0,0,1-1.2,8.93c-1.13,5.14-1.24,10.47-2.71,15.54-2.19,7-3.5,14.21-6,21.1-2.82,7.53-5.26,15.36-9.82,22.07a15.3,15.3,0,0,1-4.7.75c-10.86.27-21.76-.43-32.61.41h-.06a98.91,98.91,0,0,0,.1-13.11L339,260.9l2.63-.37c-.27-14,.95-28,1.29-42,2.28.42,4.48,1.13,6.72,1.74a10.19,10.19,0,0,0-6.95-3,58.56,58.56,0,0,0-14.81-30.94c-5.15-5.89-11.6-10.46-18.23-14.53a107,107,0,0,0-25-11.13c1.21-2.45,3.26-5.13,2.17-8-1.53-2.7-5-3.12-7.69-3.86-13.37-2.71-25.62-9.66-35.6-18.85-8.43-7.82-16.16-16.58-21.59-26.78C241.44,93.32,261,83.25,282.08,76.88Zm-7.37,12.68c.17,1.41.84,1.64,2,.71C276.53,88.86,275.86,88.62,274.71,89.56Zm19,18.92c.14,1.39.82,1.65,2,.79C295.55,107.88,294.87,107.61,293.67,108.48Zm5.85,3.07c-1.37.62-1.41,1.28-.12,2C300.76,112.91,300.8,112.25,299.52,111.55Zm24.85,1.07c-.55,1.6,0,2.15,1.68,1.65Q326.84,111.87,324.37,112.62Zm-24.62,1.69c-.43,1.4.05,1.88,1.45,1.43C301.62,114.32,301.14,113.85,299.75,114.31Zm68.63,12.38c-.41,1.4.08,1.88,1.49,1.44C370.26,126.72,369.77,126.24,368.38,126.69Zm-68.85,33.93,55,16,36.07,7.5a4.18,4.18,0,0,0,6,1.5A13.48,13.48,0,0,0,390.61,184.09Zm-.21,2.55c-.48,1.38,0,1.87,1.42,1.48C392.28,186.73,391.81,186.23,390.4,186.64Zm-36.94,15.84c-1,.42-1.84,2.62-.3,2.91C355.13,205.66,355.85,201.61,353.46,202.48Zm6,15.13-2.11,12.55.08,3.12c1.33,0,2.66,0,4,0C363,230.23,359.24,230.55,357.32,230.16Zm-7.66,16.31,2.83,8c-1.15,1.4,1.38,2.63,2.23,1.33C355.87,254.4,353.33,253.17,352.49,254.48Z" style="fill:#fefcd4"/><path d="M244.24,192.05c3.55-2.17,6.83-4.77,10.43-6.87C252.56,189.16,248.34,190.9,244.24,192.05Z" style="fill:#fefcd4"/><path d="M325.71,19.49a55.15,55.15,0,0,1,17.5-1.43A15,15,0,0,1,354.46,25c2,3.39,4.87,6.4,6,10.27,0,2.09-1.55,4.3-.36,6.28,1.57,3,0,6.69,2.31,9.45-.32,4.93-.53,9.87-1,14.78-.33,3-1.16,6.5-4.25,7.72-9.39,1.57-17.75-4.47-27-4.73-16.39-1-32.46,3.6-48.05,8.13-21,6.37-40.64,16.44-60.16,26.36,5.43,10.2,13.16,19,21.59,26.78,10,9.19,22.23,16.14,35.6,18.85,2.72.74,6.16,1.16,7.69,3.86,1.09,2.86-1,5.54-2.17,8a107,107,0,0,1,25,11.13c6.63,4.07,13.08,8.64,18.23,14.53-1.83-.9-3.68-1.73-5.53-2.58-.08.54-.23,1.63-.31,2.18-7.69-5.51-15.11-11.53-23.55-15.88-5.33-2.81-11.25-4.09-17-5.57-3.22,2.41-6.42,4.85-9.51,7.43,6,2.39,12.17,4.55,17.57,8.14,4.08,2.7,4.76,8.7,2.06,12.6-3.12,4.64-8.17,7.55-13.19,9.72-14.22,5.82-29.78,6.74-45,7.08.26-.55.77-1.64,1-2.18,4.11-1.3,8.49-1.4,12.75-1.91,12.21-1,24.56-3.74,35.21-10,4-2.38,7.63-8.7,3.15-12.36a60.9,60.9,0,0,0-17.28-7.58c-3.53.75-6.1,4-9.11,5.93.43,2,1.51,4.18.24,6.07A18.61,18.61,0,0,1,240,194.94c-3.91,2.87-9.06,4.34-11.9,8.47-6.6,3.76-14.55,4-21.87,2.71-9.35-1.73-18-6.12-25.71-11.58,2,.26,4.09.54,6.14.82-1.38-3.51-2.73-7-4.1-10.53-3.93,1.25-7.64,3.1-11.58,4.3-2.72.88-5.42-.5-8-1.32a126.2,126.2,0,0,1,18.36-6.09c-.65-2.65-1.34-5.28-2-7.9-11.64,1.21-23.5,1.63-34.75,5.09-3.34,1-6.88,3.17-10.33,1.37,5-4.59,12-4.92,18.26-6.53,8.4-2.06,17-2.94,25.63-3.67-.6-3.12-1.3-6.22-2.08-9.3-5.64.73-11.39.83-16.9,2.35-4.34,1.1-8.63,2.39-13,3.26-5.58,1.2-11.36,1.28-16.85,2.94-10,2.82-18.72,8.83-26.17,15.91-3.08,2.95-6.16,6.58-6.24,11.08-.08,4.83,2.59,9.16,5.23,13,1.67,2.59,4.63,3.77,7.47,4.59,7.18,2.14,14.24,4.67,21.48,6.62,11.31,2.8,22.91,4.33,34.45,5.85,15.76,2.49,31.76,2.44,47.66,1.87,12.53-.23,24.57-4.12,37-5.53,2.66-.27,5.7-.17,7.74,1.83,3.85,3.71,5.37,9,8,13.54,2.05-3.58,1.6-8.4,5.24-11,2.94,3.91,5.77,7.9,8.74,11.79.88-4.08,1.21-8.31,2.67-12.24,1.22-2.92,5-2.48,7.57-2.63,14.39.16,30.2-3.87,39.34-15.8l-.28,2.18a51.07,51.07,0,0,1-4.89,5.6l2.93.56c-1.82,1.51-3.59,3.08-5.35,4.65,0,2.56.06,5.13.15,7.69-.59,8,1,16.46-2.3,24.09-2.94-9.66.18-19.89-2.39-29.62-8.21,1.82-16.36,3.94-24.54,5.87-.65,15.07,0,30.16.65,45.22,4,0,8.06,0,12.1,0a18.28,18.28,0,0,1,2.82-7.63c.33,1.92.66,3.84.89,5.78,0,.46.07,1.37.1,1.82,3.64.05,7.28.1,10.92.17.71-1.09,1.41-2.17,2.13-3.25.42,1,.84,1.95,1.27,2.93,3,.13,6,.19,9,.2l-.09.78c-9.85.75-19.78-.51-29.59.84a25.45,25.45,0,0,1-10.7-.68c-.2-3.05-.44-6.09-.59-9.14-.19,2.79-.37,5.67-1.59,8.25-1-14.61-1.09-29.3-3.32-43.8-1.15,3.45-1.69,7.07-2.86,10.51-.52,1.6-2,2.93-3.78,2.35-3.11-1.05-5.35-3.62-7.81-5.67-2.12,3.61-4.3,7.76-8.79,8.69q-1-2.9-2.06-5.77H265c0-.28.05-.85.07-1.13l-3.85.13c-1.42-3.58-2.4-7.53-5.09-10.41-2.59-2.58-6.57-1.83-9.84-1.63q-17.74,2.35-35.57,4.21a44.94,44.94,0,0,0-9,1.92c.76,6.82,1.63,13.73.78,20.59s-3.45,13.42-5.28,20.1l-1.11.1c.25-1.64.5-3.28.76-4.91H195a56.9,56.9,0,0,0,4.11-22.51c-.33-4.56-.69-9.24-2.45-13.5-.87-2.1-3.52-1.86-5.38-2a124,124,0,0,1-16.23-.94c-17.61-2.18-35.3-4.46-52.52-8.88-7.26-1.74-14-5-21.28-6.79a38.78,38.78,0,0,0,.68,8.26c1.94,8.38,3.93,16.74,5.74,25.14-4.21-5.51-3.19-12.88-6.38-18.84-2.35,6.72,2.14,13.49.29,20.34-2.31-10.51-3.82-21.17-5.5-31.79-1-6.44-3-12.65-4.13-19.07a15,15,0,0,1,5-14.14c8.36-7.23,16.66-15.16,27.28-18.93,6.45-2.52,13.54-2,20.18-3.73A258.82,258.82,0,0,1,175,156.3c-1.25-6.8-3.94-13.17-6.88-19.38-3.82,1-8,3.34-11.88,1.32-4.41-2.49-6.8-7.23-9.78-11.13-1.37-2.39-3.91-4.72-3.47-7.69,2.92-3.42,6.79-5.85,10.11-8.86-.42-3.53-1.54-7.53.51-10.76,2.53-3.61,6.67-5.53,10.4-7.64,5.45-2.84,10.46-6.48,16.11-8.94,5.7-2.65,11.77-4.3,17.77-6.1a23,23,0,0,1,8.35-.53c2.93.44,4.87,2.9,6.95,4.76A71.75,71.75,0,0,0,222.9,76c10.89-7.15,21.91-14.1,33-21,14.47-9,28.63-18.59,44.31-25.37C308.61,26.08,316.73,21.56,325.71,19.49Zm2.56,3.37A188.73,188.73,0,0,0,288.9,38.92c-14.08,8-27.5,17.16-41.18,25.84l-.18.43c-4.56,2.3-8.71,5.33-13.3,7.58.51,1.23,1,2.45,1.55,3.68-5.63,6-13.58,9.1-19.6,14.67l2,2.84a130.1,130.1,0,0,1,25.14-13.59l2.76.36c-2.2,1.69-4.65,3-7,4.49-5.42,2.81-10.67,6-16,9-1.77,1-4.2,2.7-3,5.07,6.32-1,11.72-4.85,17.52-7.35a298.88,298.88,0,0,1,61.41-23.18c3.75-.88,7.61-1.21,11.35-2.19,3.11-.84,4.92-3.76,7.23-5.78a23.7,23.7,0,0,1,15.49-6.47c8.54,0,16.07,5.34,24.7,4.6-.06-2.26-.11-4.51-.17-6.77-7.47-2.44-15.43-2-23.15-1.41-2.57.1-5.13.13-7.69,0,2.53-3.09,7.07-1.74,10.54-2.47,4.57-.23,9.26.1,13.72-1.1,3.94-2.56,2-8,2.77-11.94a135.66,135.66,0,0,0-16.09,4.39C327.2,43.3,316.25,48,304.73,46.35a9.21,9.21,0,0,1,5.44-1.91c9.49-1,18.46-4.4,27.31-7.79,5.26-1.83,10.66-3.2,15.91-5.06-1.37-3.16-3.06-6.42-6.08-8.29-4.51,2.28-8.57,5.36-13,7.8C327.86,34.88,320,34.62,313,32.78c3.85-1.94,8.26-1,12.38-1.61a39.23,39.23,0,0,0,7.37-1.94c3.27-2,6.62-4.2,8.7-7.55C337,21.11,332.58,21.9,328.27,22.86ZM318.84,65c6.13.41,12.38-.24,18.4,1.36,5.33,1,10.52,3.37,16,3,3.27-.15,3.15-4,4.07-6.32a204.23,204.23,0,0,0-20.18-5.42C330.36,56,322.42,58.82,318.84,65Zm-101.07,18c-.89.32-2.47,2.41-.54,2.55,6.3-2.35,13.3-5.73,16.29-12.13C228.17,76.36,223,79.68,217.77,82.91Zm-17.29-2.29c-13.22,2-25.09,8.73-36.41,15.49-3.28,2.13-7.86,4.5-7.59,9.07.78,4.31,3.36,8,5.27,11.87,3.21,6,6.52,12,9.77,18,6.71,12.51,8.92,26.7,12.35,40.32,1.37,5.32,2.37,11,5.87,15.45,3.67,1,7.13-1.94,10.09-3.8,4.83-3.1,4.08-10.07,8.45-13.41,5.27,0,10.2,2.51,15.36,3.43-4.2,2.88-9.46.48-13.86-.59-2.19,3.21-2.93,7.13-4.91,10.42-3.58,4.26-9.76,5-13.38,9.31,9.2,1.72,18.47,3.08,27.68,4.73,4.33,1.15,7.69-2.56,11.26-4.34,16-10.39,32.57-20.36,46.48-33.61,2.45-2.15,5.34-5.07,4.54-8.64a16.37,16.37,0,0,0-16.3-1.36c-.64-1.81-.63-4.16-2.38-5.31a50.31,50.31,0,0,0-10-5.05c-3-3-6.78-5.14-10-7.95-9.71-8.4-17.59-18.72-24.13-29.72-4.22-7.17-6.74-15.18-10.58-22.54C206.6,79.59,203,80.43,200.48,80.62Zm-52.87,39.73c1.88,5.07,4.39,10.44,9.26,13.27,2.08,1.43,4.63.54,6.92.33.18-1.78.83-3.65.05-5.38a43,43,0,0,0-5.66.73,27.83,27.83,0,0,0,2.94-4.92c-1.24-1.1-2.67-2-3.89-3.08a42.7,42.7,0,0,1-.55-7C153.61,116.28,150.62,118.32,147.61,120.35Zm96.63,71.7c4.1-1.15,8.32-2.89,10.43-6.87C251.07,187.28,247.79,189.88,244.24,192.05Z" style="fill:#063a50"/><path d="M288.9,38.92a188.73,188.73,0,0,1,39.37-16.06c1.49,2.12,3,4.24,4.45,6.37a39.23,39.23,0,0,1-7.37,1.94c-4.12.61-8.53-.33-12.38,1.61,7,1.84,14.89,2.1,21.34-1.68l3.17,5.55c-8.85,3.39-17.82,6.79-27.31,7.79a9.21,9.21,0,0,0-5.44,1.91c11.52,1.69,22.47-3.05,33.11-6.72a30.23,30.23,0,0,1-.4,8.65c-3.47.73-8-.62-10.54,2.47,2.56.13,5.12.1,7.69,0-.47,1.19-.93,2.38-1.38,3.58a23.7,23.7,0,0,0-15.49,6.47c-2.31,2-4.12,4.94-7.23,5.78-3.74,1-7.6,1.31-11.35,2.19A298.88,298.88,0,0,0,237.73,92a53.68,53.68,0,0,1,1.42-6.73c2.32-1.49,4.77-2.8,7-4.49l-2.76-.36-2.17-.28c.73-.88,1.47-1.77,2.25-2.62l1.28-.73c0-.5-.11-1.49-.15-2,.34-3.36,1.75-6.46,3-9.56l.18-.43C261.4,56.08,274.82,47,288.9,38.92Zm2.6,1.67c-5.57,3.13-11.53,6-15.94,10.72,7.22-.54,13-5.47,19.41-8.3,4.12-2.49,9.3-3.59,12.46-7.42C301.57,34.65,296.51,38.17,291.5,40.59ZM270.3,59.21c-3.79,1.69-8.4,2.25-11.18,5.62,9.83-.89,19.1-4.77,28.1-8.61,3-1.62,7-2.52,8.42-6C286.91,52.32,278.79,56.35,270.3,59.21Zm33.34-7.53c0,.58-.11,1.76-.15,2.35l3.44,0c-.09-.54-.25-1.63-.33-2.17Zm13,.8c-.85.05-3,1.54-1.37,2.13C316.88,55.41,319.49,51.92,316.63,52.48ZM281.84,63.9c-8.38,2.64-17.09,5.17-24.24,10.48,4.85-.5,9.39-2.32,14-3.69C282.53,67.26,293.5,64,304.4,60.53,296.73,59.58,289.16,61.89,281.84,63.9ZM247,71.14c3,.21,6.08-.59,7.36-3.62C251.37,67.22,247.79,67.77,247,71.14Z" style="fill:#a68072"/><path d="M334.31,31.1c4.43-2.44,8.49-5.52,13-7.8,3,1.87,4.71,5.13,6.08,8.29-5.25,1.86-10.65,3.23-15.91,5.06Z" style="fill:#796772"/><path d="M236.33,25.51c3.45-.44.17,4.13-.82,1Z" style="fill:#e1dfb7"/><path d="M291.5,40.59c5-2.42,10.07-5.94,15.93-5-3.16,3.83-8.34,4.93-12.46,7.42-6.42,2.83-12.19,7.76-19.41,8.3C280,46.57,285.93,43.72,291.5,40.59Z" style="fill:#073a52"/><path d="M337.84,39.63a135.66,135.66,0,0,1,16.09-4.39c-.75,3.93,1.17,9.38-2.77,11.94-4.46,1.2-9.15.87-13.72,1.1A30.23,30.23,0,0,0,337.84,39.63Z" style="fill:#79676f"/><path d="M270.3,59.21c8.49-2.86,16.61-6.89,25.34-9-1.43,3.46-5.42,4.36-8.42,6-9,3.84-18.27,7.72-28.1,8.61C261.9,61.46,266.51,60.9,270.3,59.21Z" style="fill:#0b394c"/><path d="M334.59,50.75c7.72-.56,15.68-1,23.15,1.41.06,2.26.11,4.51.17,6.77-8.63.74-16.16-4.57-24.7-4.6C333.66,53.13,334.12,51.94,334.59,50.75Z" style="fill:#7a6771"/><path d="M316.63,52.48c2.86-.56.25,2.93-1.37,2.13C313.63,54,315.78,52.53,316.63,52.48Z" style="fill:#393a3a"/><path d="M318.84,65c3.58-6.14,11.52-8.94,18.32-7.34A204.23,204.23,0,0,1,357.34,63c-.92,2.27-.8,6.17-4.07,6.32-5.51.33-10.7-2-16-3C331.22,64.72,325,65.37,318.84,65Zm23-1.06a8.88,8.88,0,0,0,10.22.43C349,62.33,345.15,62.56,341.86,63.9Z" style="fill:#786775"/><path d="M281.84,63.9c7.32-2,14.89-4.32,22.56-3.37-10.9,3.49-21.87,6.73-32.78,10.16-4.63,1.37-9.17,3.19-14,3.69C264.75,69.07,273.46,66.54,281.84,63.9Z" style="fill:#0a3849"/><path d="M341.86,63.9c3.29-1.34,7.11-1.57,10.22.43A8.88,8.88,0,0,1,341.86,63.9Z" style="fill:#0b354d"/><path d="M234.24,72.77c4.59-2.25,8.74-5.28,13.3-7.58-1.22,3.1-2.63,6.2-3,9.56-2.54-.09-5.08.37-6.8,2.4,1.88.15,3.77.28,5.67.32-.78.85-1.52,1.74-2.25,2.62l2.17.28A130.1,130.1,0,0,0,218.22,94l-2-2.84c6-5.57,14-8.63,19.6-14.67C235.26,75.22,234.75,74,234.24,72.77Z" style="fill:#796872"/><path d="M217.77,82.91c5.22-3.23,10.4-6.55,15.75-9.58-3,6.4-10,9.78-16.29,12.13C215.3,85.32,216.88,83.23,217.77,82.91Z" style="fill:#5a6775"/><path d="M200.48,80.62c2.53-.19,6.12-1,7.56,1.77,3.84,7.36,6.36,15.37,10.58,22.54,6.54,11,14.42,21.32,24.13,29.72,3.19,2.81,6.93,4.95,10,7.95-8.59-2.69-14.91-9.44-21.26-15.45-9.52-9.21-18.3-20-30.77-25.3-5.3-2.49-11.36-1.15-16.38,1.35-8,3.74-15,9.31-22.56,13.85-1.91-3.87-4.49-7.56-5.27-11.87-.27-4.57,4.31-6.94,7.59-9.07C175.39,89.35,187.26,82.61,200.48,80.62Zm-25.86,15c-1,2,3.42,2.45,3.75.55C177.92,94.66,175.63,94.8,174.62,95.62Zm-7.19,4.48.92,2.48q-2.83.48-5.63,1c3.07,2.48,7.13,2.06,10.81,1.72l-2.4-2.86c1.53-.48,3.06-1,4.59-1.49C173.29,99.11,170.22,99.41,167.43,100.1Zm-7.65,7.23c2.81,3,7.18,2.89,10.9,1.94C167.63,106.65,163.5,106.71,159.78,107.33Z" style="fill:#598897"/><path d="M223.2,94.23c5.28-3.06,10.53-6.2,16-9A53.68,53.68,0,0,0,237.73,92c-5.8,2.5-11.2,6.38-17.52,7.35C219,96.93,221.43,95.26,223.2,94.23Z" style="fill:#786773"/><path d="M274.71,89.56c1.15-.94,1.82-.7,2,.71C275.55,91.2,274.88,91,274.71,89.56Z" style="fill:#d2cfa7"/><path d="M174.62,95.62c1-.82,3.3-1,3.75.55C178,98.07,173.65,97.65,174.62,95.62Z" style="fill:#134457"/><path d="M167.43,100.1c2.79-.69,5.86-1,8.29.88-1.53.52-3.06,1-4.59,1.49l2.4,2.86c-3.68.34-7.74.76-10.81-1.72q2.79-.56,5.63-1Z" style="fill:#073c50"/><path d="M184.31,103.2c5-2.5,11.08-3.84,16.38-1.35,12.47,5.33,21.25,16.09,30.77,25.3,6.35,6,12.67,12.76,21.26,15.45a50.31,50.31,0,0,1,10,5.05c1.75,1.15,1.74,3.5,2.38,5.31-2.31.85-4.69,1.93-5.92,4.2-2.7-.35-5.63-1.24-8.23-.06-2.41,1.45-3.87,4-6.2,5.56-3.33.83-6.88-.8-10.19.16-3.3,2.88-5.2,7-8,10.4-1,1.3-2,2.59-3,3.82-5.16-.92-10.09-3.46-15.36-3.43-4.37,3.34-3.62,10.31-8.45,13.41-3,1.86-6.42,4.84-10.09,3.8-3.5-4.42-4.5-10.13-5.87-15.45-3.43-13.62-5.64-27.81-12.35-40.32-3.25-6-6.56-12-9.77-18C169.32,112.51,176.29,106.94,184.31,103.2Zm6.19,39.33c.39,3.58,4.39,2.59,6,.44C194.71,142.11,191.74,139.87,190.5,142.53Z" style="fill:#95bdc6"/><path d="M159.78,107.33c3.72-.62,7.85-.68,10.9,1.94C167,110.22,162.59,110.36,159.78,107.33Z" style="fill:#033a53"/><path d="M293.67,108.48c1.2-.87,1.88-.6,2,.79C294.49,110.13,293.81,109.87,293.67,108.48Z" style="fill:#bebc94"/><path d="M299.52,111.55c1.28.7,1.24,1.36-.12,2C298.11,112.83,298.15,112.17,299.52,111.55Z" style="fill:#dad8b0"/><path d="M72.64,195.52c.75-1.08,3.06-.09,2.12,1.19C74,197.78,71.69,196.79,72.64,195.52Z" style="fill:#dad8b0"/><path d="M324.37,112.62q2.47-.75,1.68,1.65C324.39,114.77,323.82,114.22,324.37,112.62Z" style="fill:#cfcca4"/><path d="M147.61,120.35c3-2,6-4.07,9.07-6a42.7,42.7,0,0,0,.55,7c1.22,1.12,2.65,2,3.89,3.08a27.83,27.83,0,0,1-2.94,4.92,43,43,0,0,1,5.66-.73c.78,1.73.13,3.6-.05,5.38-2.29.21-4.84,1.1-6.92-.33C152,130.79,149.49,125.42,147.61,120.35Zm4.7,2q-.84,2.46,1.6,1.69Q154.74,121.6,152.31,122.38Z" style="fill:#a38073"/><path d="M299.75,114.31c1.39-.46,1.87,0,1.45,1.43C299.8,116.19,299.32,115.71,299.75,114.31Z" style="fill:#d2d0a8"/><path d="M152.31,122.38q2.43-.78,1.6,1.69Q151.47,124.84,152.31,122.38Z" style="fill:#24312e"/><path d="M368.38,126.69c1.39-.45,1.88,0,1.49,1.44C368.46,128.57,368,128.09,368.38,126.69Z" style="fill:#d6d4ab"/><path d="M190.5,142.53c1.24-2.66,4.21-.42,6,.44C194.89,145.12,190.89,146.11,190.5,142.53Z" style="fill:#aeced9"/><path d="M265.15,153a16.37,16.37,0,0,1,16.3,1.36c.8,3.57-2.09,6.49-4.54,8.64-13.91,13.25-30.44,23.22-46.48,33.61-3.57,1.78-6.93,5.49-11.26,4.34-9.21-1.65-18.48-3-27.68-4.73,3.62-4.28,9.8-5.05,13.38-9.31,2-3.29,2.72-7.21,4.91-10.42,4.4,1.07,9.66,3.47,13.86.59,1.06-1.23,2-2.52,3-3.82,2-.18,4.14.24,6-.49,1.36-2.06,1.92-4.61,3.58-6.48,3.27-1.07,6.63.91,10,.34,1.78-1.7,2.75-4.06,4.47-5.81,2.45-1.24,5.27-1.48,7.77-2.59l.76-1C260.46,154.89,262.84,153.81,265.15,153Zm-56.7,41.47c-1.21,1.51,1.52,2.89,2.49,1.54C212.15,194.45,209.41,193.07,208.45,194.43Z" style="fill:#bfd7dd"/><path d="M89.72,155.45c1.42-.42,1.92.07,1.51,1.45C89.81,157.32,89.31,156.83,89.72,155.45Z" style="fill:#bdba92"/><path d="M251,157.1c2.6-1.18,5.53-.29,8.23.06l-.76,1c-2.5,1.11-5.32,1.35-7.77,2.59-1.72,1.75-2.69,4.11-4.47,5.81-3.33.57-6.69-1.41-10-.34-1.66,1.87-2.22,4.42-3.58,6.48-1.9.73-4.06.31-6,.49,2.76-3.38,4.66-7.52,8-10.4,3.31-1,6.86.67,10.19-.16C247.13,161.12,248.59,158.55,251,157.1Z" style="fill:#063a52"/><path d="M159.2,163.13c5.51-1.52,11.26-1.62,16.9-2.35.78,3.08,1.48,6.18,2.08,9.3-8.61.73-17.23,1.61-25.63,3.67-6.25,1.61-13.27,1.94-18.26,6.53,3.45,1.8,7-.42,10.33-1.37,11.25-3.46,23.11-3.88,34.75-5.09.69,2.62,1.38,5.25,2,7.9A126.2,126.2,0,0,0,163,187.81c2.54.82,5.24,2.2,8,1.32,3.94-1.2,7.65-3,11.58-4.3,1.37,3.51,2.72,7,4.1,10.53-2.05-.28-4.1-.56-6.14-.82,7.71,5.46,16.36,9.85,25.71,11.58,7.32,1.31,15.27,1,21.87-2.71,2.84-4.13,8-5.6,11.9-8.47a18.61,18.61,0,0,0,19.36-7.47c1.27-1.89.19-4.11-.24-6.07,3-1.93,5.58-5.18,9.11-5.93a60.9,60.9,0,0,1,17.28,7.58c4.48,3.66.83,10-3.15,12.36-10.65,6.26-23,9-35.21,10-4.26.51-8.64.61-12.75,1.91-.26.54-.77,1.63-1,2.18,15.18-.34,30.74-1.26,45-7.08,5-2.17,10.07-5.08,13.19-9.72,2.7-3.9,2-9.9-2.06-12.6-5.4-3.59-11.59-5.75-17.57-8.14,3.09-2.58,6.29-5,9.51-7.43,5.79,1.48,11.71,2.76,17,5.57,8.44,4.35,15.86,10.37,23.55,15.88,0,.25-.12.75-.15,1l-2.57,1.76c3.17,3,6.84,5.56,9.31,9.2,2.12,3,1.36,6.87.92,10.29-9.14,11.93-24.95,16-39.34,15.8-2.6.15-6.35-.29-7.57,2.63-1.46,3.93-1.79,8.16-2.67,12.24-3-3.89-5.8-7.88-8.74-11.79-3.64,2.6-3.19,7.42-5.24,11-2.68-4.5-4.2-9.83-8-13.54-2-2-5.08-2.1-7.74-1.83-12.39,1.41-24.43,5.3-37,5.53-15.9.57-31.9.62-47.66-1.87,6.07-1.38,12.39,0,18.39-1.78,9.72-.35,19.46.39,29.16-.47,8-.71,16-1.85,24-3,9.32-1.45,18.78-2.47,27.78-5.45,2-.57,3.49-2.13,5-3.51a15.77,15.77,0,0,0-8.62.2c-7.29,2.38-15,3-22.5,4.14-9.38,1.29-18.73,2.8-28.15,3.81-.11,1.06-.23,2.13-.34,3.2,0-.73-.14-2.2-.19-2.93-7.52.73-15.06,0-22.59-.29-19.74-1.11-40.21-1.47-58.59-9.66-5.82-2.34-11-6.77-17.56-6.75,2.14,3.38,5.77,5.22,9.11,7.18a93.46,93.46,0,0,0,17.76,7.76,47.81,47.81,0,0,1-7.07,1.68c-7.24-2-14.3-4.48-21.48-6.62-2.84-.82-5.8-2-7.47-4.59-2.64-3.86-5.31-8.19-5.23-13,.08-4.5,3.16-8.13,6.24-11.08,7.45-7.08,16.2-13.09,26.17-15.91,5.49-1.66,11.27-1.74,16.85-2.94C150.57,165.52,154.86,164.23,159.2,163.13Zm138.28,19.16c3.88,5,10.54,9.89,8.95,17.06-2.87,7.23-11.8,7.42-18,10.14l.24,2.8c5.7-1,11.53-2.19,16.74-4.82,4.8-2.68,8.46-9.39,5.16-14.52a56.69,56.69,0,0,0-8.63-11.32C300.58,180.86,297.56,179.84,297.48,182.29Zm-193.1,13c-.44,2.25,1.47,3.74,2.73,5.28,2.18-6,4.59-11.93,6.6-18C108.5,184.69,104.48,189.55,104.38,195.31Zm18.82-5.44c-.93,2.53-.71,5.13,1.59,6.8C125.47,194.2,125.17,191.65,123.2,189.87Zm11.47,2.56c.72,5.15,2.36,11.52,8,13.31,9.37,2.29,19.08,2.72,28.63,3.9,9.05,1.33,18.13,2.53,27.23,3.45,5.51,1,11.9,1.17,16.32-2.85-6.2-.21-12.43.12-18.58-.74-15-2.23-30.09-3.35-45.08-5.38-4.4-.55-9.14-2.45-11-6.76C139.12,194.93,136.93,193.53,134.67,192.43Zm18.41,1.38c-.23.57-.71,1.71-1,2.27a10,10,0,0,0,9.53,2.16C158.94,196.53,156.21,194.66,153.08,193.81Z" style="fill:#ddb497"/><path d="M297.48,182.29c.08-2.45,3.1-1.43,4.45-.66A56.69,56.69,0,0,1,310.56,193c3.3,5.13-.36,11.84-5.16,14.52-5.21,2.63-11,3.78-16.74,4.82l-.24-2.8c6.21-2.72,15.14-2.91,18-10.14C308,192.18,301.36,187.3,297.48,182.29Z" style="fill:#063a4f"/><path d="M104.38,195.31c.1-5.76,4.12-10.62,9.33-12.72-2,6.07-4.42,12-6.6,18C105.85,199.05,103.94,197.56,104.38,195.31Z" style="fill:#053a51"/><path d="M111.3,203.93c6.56,0,11.74,4.41,17.56,6.75,18.38,8.19,38.85,8.55,58.59,9.66,7.53.24,15.07,1,22.59.29.05.73.15,2.2.19,2.93.11-1.07.23-2.14.34-3.2,9.42-1,18.77-2.52,28.15-3.81,7.53-1.19,15.21-1.76,22.5-4.14a15.77,15.77,0,0,1,8.62-.2c-1.5,1.38-3,2.94-5,3.51-9,3-18.46,4-27.78,5.45-8,1.13-15.95,2.27-24,3-9.7.86-19.44.12-29.16.47-15.38-.48-31-1-45.77-5.75a93.46,93.46,0,0,1-17.76-7.76C117.07,209.15,113.44,207.31,111.3,203.93Z" style="fill:#053a51"/><path d="M322.32,183.8c1.85.85,3.7,1.68,5.53,2.58a58.56,58.56,0,0,1,14.81,30.94,10.19,10.19,0,0,1,6.95,3c-2.24-.61-4.44-1.32-6.72-1.74-.34,14-1.56,28-1.29,42l-2.63.37,2.68.13a98.91,98.91,0,0,1-.1,13.11h.06a170,170,0,0,0,17.63.21c13,.18,26,.06,39,.13a31.2,31.2,0,0,1,26,14.78c5.06,8,5.45,18,4,27.11-.07-1.66-.19-3.32-.28-5a32.74,32.74,0,0,1-10.15,18.48c-6.1,5.42-14.5,7.67-22.54,7.39-25-.3-50,.43-75,0-13-.33-26,.38-39.07,0-46.34-.06-92.66.11-139,0-5.69-.06-11.37,1.23-17,.15-14.62-.81-29.29.4-43.93-.08-10.66-.38-21.33-.13-32,.07-8.67,0-18,.35-25.68-4.4-6.18-3.59-10.52-9.4-13.92-15.54l-1.21-.87-.23-.16c-.88-7.66-1.13-15.78,2-23a31.2,31.2,0,0,1,26-18.88c23.78-.47,47.59.33,71.37-.44l-.52-1.7c-2.16-7.36-4-14.82-5.47-22.36,1.85-6.85-2.64-13.62-.29-20.34,3.19,6,2.17,13.33,6.38,18.84,2.28,7.81,4,15.8,6.93,23.42a4.48,4.48,0,0,0,2.6,2.89,62.8,62.8,0,0,0,2.58-5.82c1.1,1.82,2.21,3.65,3.33,5.47,2.56,0,5.12,0,7.68,0,9.37,0,18.74,0,28.11,0,.08-1.55.17-3.11.27-4.65,1.25,1.44,2.48,2.92,3.68,4.42,2.55.14,5.11.23,7.67.29-2.13-6.34-6.13-11.87-8.1-18.27-1.68-7.64,0-15.52,3.15-22.54l3.29-.45c-1.11,7.7-4.39,15.41-2,23.23a90.65,90.65,0,0,0,7.55,17.63,86.77,86.77,0,0,0,18.51,0,26.37,26.37,0,0,0,2.09-4.35h1.88c-.26,1.63-.51,3.27-.76,4.91l1.11-.1c6.34-.36,12.7.29,19-.23,1.6,0,2.65-1.34,3.59-2.44a25.83,25.83,0,0,0,5.27-19.66,50.45,50.45,0,0,1-.46-14.41c3.26,1.55,3.07,5.38,3.66,8.38.67,5,2.05,10,1.25,15.06-.68,4.78-3.06,9.06-5.3,13.27q4.59-.07,9.18-.06c2.1-4.88,3.45-10.13,6.21-14.69l3.21-1.52c-.48,5.71-3,10.9-5,16.17,7.34.06,14.67.12,22-.07-.67-1.33-1.32-2.66-2-4,.48-1.22,1-2.43,1.46-3.65,1.58,2.53,2.91,5.25,4.86,7.53,4.62.58,9.29.13,13.94.11-.17-6.44-2.47-13-.59-19.32,1.33,1.41,1.54,3.44,1.92,5.26.8,4.7,1.12,9.48,2,14.18,2.91,0,5.83.06,8.74,0,1.22-2.58,1.4-5.46,1.59-8.25.15,3.05.39,6.09.59,9.14a25.45,25.45,0,0,0,10.7.68c9.81-1.35,19.74-.09,29.59-.84l.09-.78c.93-15.06,2.16-30.11,2.9-45.19a38,38,0,0,0-3-17c-1.81,1.41-3.61,2.83-5.37,4.29l-2.93-.56a51.07,51.07,0,0,0,4.89-5.6l.28-2.18c.44-3.42,1.2-7.25-.92-10.29-2.47-3.64-6.14-6.22-9.31-9.2l2.57-1.76c0-.25.11-.75.15-1C322.09,185.43,322.24,184.34,322.32,183.8ZM42.45,288.45m-13.1,11.82c-4.58,1.16-5.31,8-1.35,10.36,3.66,2.72,9.47-.76,8.84-5.27C36.87,301.7,32.72,299.05,29.35,300.27Zm373.29.46a5.76,5.76,0,0,0-1.57,8.76c2.7,3.55,9,2.22,9.93-2.18C412.73,302.65,406.77,298,402.64,300.73Z" style="fill:#013b53"/><path d="M390.61,184.09a13.48,13.48,0,0,1,6,1.5A4.18,4.18,0,0,1,390.61,184.09Z" style="fill:#bfbc97"/><path d="M390.4,186.64c1.41-.41,1.88.09,1.42,1.48C390.4,188.51,389.92,188,390.4,186.64Z" style="fill:#dbd8b2"/><path d="M134.67,192.43c2.26,1.1,4.45,2.5,5.44,4.93,1.89,4.31,6.63,6.21,11,6.76,15,2,30.1,3.15,45.08,5.38,6.15.86,12.38.53,18.58.74-4.42,4-10.81,3.87-16.32,2.85-9.1-.92-18.18-2.12-27.23-3.45-9.55-1.18-19.26-1.61-28.63-3.9C137,204,135.39,197.58,134.67,192.43Z" style="fill:#083a4e"/><path d="M153.08,193.81c3.13.85,5.86,2.72,8.58,4.43a10,10,0,0,1-9.53-2.16C152.37,195.52,152.85,194.38,153.08,193.81Z" style="fill:#10394a"/><path d="M208.45,194.43c1-1.36,3.7,0,2.49,1.54C210,197.32,207.24,195.94,208.45,194.43Z" style="fill:#9bb2b8"/><path d="M353.46,202.48c2.39-.87,1.67,3.18-.3,2.91C351.62,205.1,352.41,202.9,353.46,202.48Z" style="fill:#dfdcb4"/><path d="M327.28,216.57c1.76-1.46,3.56-2.88,5.37-4.29a38,38,0,0,1,3,17c-.74,15.08-2,30.13-2.9,45.19-3,0-6-.07-9-.2-.43-1-.85-2-1.27-2.93-.72,1.08-1.42,2.16-2.13,3.25-3.64-.07-7.28-.12-10.92-.17,0-.45-.08-1.36-.1-1.82,4.35-2.92,9.27-5.64,11.66-10.56,5.47-10.22,4.13-22.36,1.11-33.11-.09-2.56-.12-5.13-.15-7.69C323.69,219.65,325.46,218.08,327.28,216.57Z" style="fill:#7a6772"/><path d="M101.27,215.17c7.23,1.82,14,5.05,21.28,6.79,17.22,4.42,34.91,6.7,52.52,8.88a124,124,0,0,0,16.23.94c1.86.13,4.51-.11,5.38,2,1.76,4.26,2.12,8.94,2.45,13.5a45.19,45.19,0,0,1-14.72,7.3c.23-6.44.84-14-4.22-18.87a82.68,82.68,0,0,0,.46,19.38c-4.59.48-9.19.95-13.78,1.44-2.38-7.82.9-15.53,2-23.23l-3.29.45c-3.17,7-4.83,14.9-3.15,22.54a76.94,76.94,0,0,0-12.36,2.11c-.65-9.38-1-18.79-1.86-28.16a10,10,0,0,0-3.07,7A59.21,59.21,0,0,0,147,261c-1.26-.19-2.65-.5-3.78.28a33.22,33.22,0,0,0-12.43,13.19c-2.56,0-5.12,0-7.68,0-1.12-1.82-2.23-3.65-3.33-5.47a62.8,62.8,0,0,1-2.58,5.82,4.48,4.48,0,0,1-2.6-2.89c-2.88-7.62-4.65-15.61-6.93-23.42-1.81-8.4-3.8-16.76-5.74-25.14A38.78,38.78,0,0,1,101.27,215.17Zm9.8,7.08c2,4.16,4.56,8.1,5.6,12.65,2.37,8.66,1.55,17.75,3.27,26.52a47.54,47.54,0,0,0,1.58-21.17C120.46,233.29,117.83,225.58,111.07,222.25Zm20.13,5.84a45.32,45.32,0,0,0,.51,27.74c1.45-2.24,1.06-5,1.09-7.49C132.6,241.58,132.79,234.71,131.2,228.09ZM107.8,235a58.34,58.34,0,0,0,2.85,10.61,6.92,6.92,0,0,0,.93-8.59C110.76,235.82,109.54,233.67,107.8,235Z" style="fill:#796771"/><path d="M138.17,218.87c14.79,4.71,30.39,5.27,45.77,5.75-6,1.8-12.32.4-18.39,1.78-11.54-1.52-23.14-3.05-34.45-5.85A47.81,47.81,0,0,0,138.17,218.87Z" style="fill:#d3baa7"/><path d="M111.07,222.25c6.76,3.33,9.39,11,10.45,18a47.54,47.54,0,0,1-1.58,21.17c-1.72-8.77-.9-17.86-3.27-26.52C115.63,230.35,113.05,226.41,111.07,222.25Z" style="fill:#063a51"/><path d="M292.85,229.25c8.18-1.93,16.33-4.05,24.54-5.87,2.57,9.73-.55,20,2.39,29.62,3.29-7.63,1.71-16.06,2.3-24.09,3,10.75,4.36,22.89-1.11,33.11-2.39,4.92-7.31,7.64-11.66,10.56-.23-1.94-.56-3.86-.89-5.78a18.28,18.28,0,0,0-2.82,7.63c-4,.07-8.07.06-12.1,0C292.81,259.41,292.2,244.32,292.85,229.25Zm12.29,13.12c.23,6.57.69,13.21,2.64,19.53,1.45-4,1.4-8.34,1.5-12.55-.08-6.17-.43-12.46-2.51-18.33C305.11,234.56,305,238.53,305.14,242.37Z" style="fill:#a67f71"/><path d="M210.72,232q17.82-1.84,35.57-4.21c3.27-.2,7.25-1,9.84,1.63,2.69,2.88,3.67,6.83,5.09,10.41l3.85-.13c0,.28-.05.85-.07,1.13h-3.41q1,2.88,2.06,5.77c4.49-.93,6.67-5.08,8.79-8.69,2.46,2.05,4.7,4.62,7.81,5.67,1.78.58,3.26-.75,3.78-2.35,1.17-3.44,1.71-7.06,2.86-10.51,2.23,14.5,2.36,29.19,3.32,43.8-2.91.09-5.83,0-8.74,0-.85-4.7-1.17-9.48-2-14.18-.38-1.82-.59-3.85-1.92-5.26-1.88,6.37.42,12.88.59,19.32-4.65,0-9.32.47-13.94-.11-2-2.28-3.28-5-4.86-7.53a55.73,55.73,0,0,1-5.15-10.52c-2-5.34-2.51-11.1-4.46-16.45-2.69,5.73-1.15,12.29,1.1,17.9,1.74,4.56,4.67,8.5,7.05,12.72.7,1.31,1.35,2.64,2,4-7.34.19-14.67.13-22,.07,2-5.27,4.5-10.46,5-16.17l-3.21,1.52c-2.76,4.56-4.11,9.81-6.21,14.69q-4.59,0-9.18.06c2.24-4.21,4.62-8.49,5.3-13.27.8-5.06-.58-10.08-1.25-15.06-.59-3-.4-6.83-3.66-8.38a50.45,50.45,0,0,0,.46,14.41,25.83,25.83,0,0,1-5.27,19.66c-.94,1.1-2,2.43-3.59,2.44-6.34.52-12.7-.13-19,.23,1.83-6.68,4.46-13.18,5.28-20.1s0-13.77-.78-20.59A44.94,44.94,0,0,1,210.72,232ZM248,228c-.18,2.69-.25,5.39-.25,8.09C252.7,235.94,250.73,229.85,248,228Zm-11.1,15.14,2.25-.19c2-3.54,1.22-7.54-.52-11C236.24,235.25,236.48,239.35,236.93,243.17Zm-19.26-4.68c.15,1.39.81,1.62,2,.68C219.51,237.77,218.84,237.54,217.67,238.49Zm1.06,2.92c-1,1.31,1.27,2.83,2.23,1.58S219.67,240.15,218.73,241.41Zm-6.25.74c-.09,4.81.16,9.62.45,14.42,1.9-2,3.8-4.32,3.88-7.22S214.3,244.25,212.48,242.15Zm52.88,16a59.56,59.56,0,0,0,.22,6l2.45.07C267.45,262.29,268.82,256.85,265.36,258.19Zm19,5.2c-.5,1.61.07,2.15,1.72,1.64C286.56,263.41,286,262.87,284.35,263.39Z" style="fill:#a67f71"/><path d="M184.41,254.57a45.19,45.19,0,0,0,14.72-7.3A56.9,56.9,0,0,1,195,269.78a26.37,26.37,0,0,1-2.09,4.35,86.77,86.77,0,0,1-18.51,0,90.65,90.65,0,0,1-7.55-17.63c4.59-.49,9.19-1,13.78-1.44a65.79,65.79,0,0,0,2.24,9.57A73,73,0,0,0,184.41,254.57Z" style="fill:#a67f71"/><path d="M150.08,258.39a76.94,76.94,0,0,1,12.36-2.11c2,6.4,6,11.93,8.1,18.27-2.56-.06-5.12-.15-7.67-.29-1.2-1.5-2.43-3-3.68-4.42-.1,1.54-.19,3.1-.27,4.65-9.37,0-18.74,0-28.11,0a33.22,33.22,0,0,1,12.43-13.19c1.13-.78,2.52-.47,3.78-.28.36.38,1.75,3.32,2.2,1.3A20.43,20.43,0,0,0,150.08,258.39Z" style="fill:#a67f71"/><path d="M131.2,228.09c1.59,6.62,1.4,13.49,1.6,20.25,0,2.52.36,5.25-1.09,7.49A45.32,45.32,0,0,1,131.2,228.09Z" style="fill:#07384e"/><path d="M248,228c2.7,1.82,4.67,7.91-.25,8.09C247.78,233.42,247.85,230.72,248,228Z" style="fill:#083947"/><path d="M212.48,242.15c1.82,2.1,4.32,4.16,4.33,7.2s-2,5.22-3.88,7.22C212.64,251.77,212.39,247,212.48,242.15Z" style="fill:#083947"/><path d="M357.32,230.16c1.92.39,5.63.07,4.09,3.11-1.35,0-2.68,0-4,0Z" style="fill:#bcba92"/><path d="M145.15,237.23a10,10,0,0,1,3.07-7c.87,9.37,1.21,18.78,1.86,28.16a20.43,20.43,0,0,1-.86,3.93c-.45,2-1.84-.92-2.2-1.3A59.21,59.21,0,0,1,145.15,237.23Z" style="fill:#043a50"/><path d="M305.14,242.37c-.1-3.84,0-7.81,1.63-11.35,2.08,5.87,2.43,12.16,2.51,18.33-.1,4.21,0,8.54-1.5,12.55C305.83,255.58,305.37,248.94,305.14,242.37Z" style="fill:#093852"/><path d="M236.93,243.17c-.45-3.82-.69-7.92,1.73-11.18,1.74,3.45,2.5,7.45.52,11Z" style="fill:#083c4f"/><path d="M107.8,235c1.74-1.3,3,.85,3.78,2a6.92,6.92,0,0,1-.93,8.59A58.34,58.34,0,0,1,107.8,235Z" style="fill:#053d52"/><path d="M180.19,235.7c5.06,4.9,4.45,12.43,4.22,18.87a73,73,0,0,1-1.52,10.08,65.79,65.79,0,0,1-2.24-9.57A82.68,82.68,0,0,1,180.19,235.7Z" style="fill:#063b52"/><path d="M217.67,238.49c1.17-1,1.84-.72,2,.68C218.48,240.11,217.82,239.88,217.67,238.49Z" style="fill:#c6a697"/><path d="M250.86,257.7c-2.25-5.61-3.79-12.17-1.1-17.9,2,5.35,2.46,11.11,4.46,16.45a55.73,55.73,0,0,0,5.15,10.52c-.49,1.22-1,2.43-1.46,3.65C255.53,266.2,252.6,262.26,250.86,257.7Z" style="fill:#083a4f"/><path d="M218.73,241.41c.94-1.26,3.22.26,2.23,1.58S217.73,242.72,218.73,241.41Z" style="fill:#c5a195"/><path d="M352.49,254.48c.84-1.31,3.38-.08,2.23,1.33C353.87,257.11,351.34,255.88,352.49,254.48Z" style="fill:#dddab2"/><path d="M284.35,263.39c1.64-.52,2.21,0,1.72,1.64C284.42,265.54,283.85,265,284.35,263.39Z" style="fill:#7c5749"/><path d="M29.35,300.27c3.37-1.22,7.52,1.43,7.49,5.09.63,4.51-5.18,8-8.84,5.27C24,308.28,24.77,301.43,29.35,300.27Z" style="fill:#fcfefb"/><path d="M402.64,300.73c4.13-2.69,10.09,1.92,8.36,6.58-.94,4.4-7.23,5.73-9.93,2.18A5.76,5.76,0,0,1,402.64,300.73Z" style="fill:#fbfdfc"/><path d="M417.79,329.87a32.74,32.74,0,0,0,10.15-18.48c.09,1.65.21,3.31.28,5-2.49,14-15.76,25.09-30,25q-180,0-360,0c-14.1,0-27.18-10.91-29.79-24.73l1.21.87c3.4,6.14,7.74,11.95,13.92,15.54,7.66,4.75,17,4.43,25.68,4.4,10.66-.2,21.33-.45,32-.07,14.64.48,29.31-.73,43.93.08,5.68,1.08,11.36-.21,17-.15,46.33.12,92.65,0,139,0,13,.35,26-.36,39.07,0,25,.43,50-.3,75,0C403.29,337.54,411.69,335.29,417.79,329.87ZM38.48,338.66" style="fill:#052134"/><path d="M296.8,270.76H157.39a17,17,0,0,1-16.93-16.92h0a17,17,0,0,1,16.93-16.93H296.8a17,17,0,0,1,16.93,16.93h0A17,17,0,0,1,296.8,270.76Z" style="fill:#013b53"/><text transform="translate(110.23 326.36)" style="font-size:50.60546112060547px;fill:#fff;font-family:Righteous-Regular, Righteous">del KABE</text><text transform="translate(159.23 260.34)" style="font-size:19.974950790405273px;fill:#fff;font-family:Righteous-Regular, Righteous"><tspan style="letter-spacing:-0.01317568170813302em">L</tspan><tspan x="10.98" y="0">a </tspan><tspan x="28.71" y="0" style="letter-spacing:-0.018064617406883678em">C</tspan><tspan x="41.14" y="0">arpi</tspan><tspan x="78.43" y="0" style="letter-spacing:-0.006820065299757167em">n</tspan><tspan x="89.52" y="0">tería</tspan></text></svg>